<svg width="30" height="24" viewBox="0 0 30 24" fill="none" xmlns="http://www.w3.org/2000/svg">
<path fill-rule="evenodd" clip-rule="evenodd" d="M8.24952 3.79383C8.34399 3.66251 8.4489 3.50174 8.58269 3.28496C8.63156 3.20577 8.76481 2.98593 8.86404 2.82221L8.86412 2.82208L8.9759 2.63788C10.0812 0.82985 10.8847 0 12.3335 0H19.0002V2.66667H12.3335C12.2179 2.66667 11.8542 3.0423 11.2511 4.02878L11.1541 4.18863L11.1539 4.18896C11.0538 4.35407 10.9081 4.59449 10.852 4.68545C10.6881 4.95109 10.5518 5.15984 10.4143 5.35101C9.81665 6.18188 9.21929 6.66667 8.3335 6.66667H4.3335C3.59712 6.66667 3.00016 7.26362 3.00016 8V20C3.00016 20.7364 3.59712 21.3333 4.3335 21.3333H25.6668C26.4032 21.3333 27.0002 20.7364 27.0002 20V12H29.6668V20C29.6668 22.2091 27.876 24 25.6668 24H4.3335C2.12436 24 0.333496 22.2091 0.333496 20V8C0.333496 5.79086 2.12436 4 4.3335 4H8.08842C8.13281 3.94925 8.18723 3.88044 8.24952 3.79383ZM21.6668 6.66667V4H24.3335V1.33333H27.0002V4H29.6668V6.66667H27.0002V9.33333H24.3335V6.66667H21.6668ZM15.0002 20C11.3183 20 8.3335 17.0152 8.3335 13.3333C8.3335 9.65143 11.3183 6.66667 15.0002 6.66667C18.6821 6.66667 21.6668 9.65143 21.6668 13.3333C21.6668 17.0152 18.6821 20 15.0002 20ZM15.0002 17.3333C17.2093 17.3333 19.0002 15.5425 19.0002 13.3333C19.0002 11.1242 17.2093 9.33333 15.0002 9.33333C12.791 9.33333 11.0002 11.1242 11.0002 13.3333C11.0002 15.5425 12.791 17.3333 15.0002 17.3333Z" fill="#C6A972"/>
</svg>
