<svg width="26" height="26" viewBox="0 0 26 26" fill="none" xmlns="http://www.w3.org/2000/svg">
<path d="M21.3333 7.33332V11.32C21.3333 11.32 18.68 11.3333 18.6667 11.32V7.33332H14.6667C14.6667 7.33332 14.68 4.67999 14.6667 4.66666H18.6667V0.666656H21.3333V4.66666H25.3333V7.33332H21.3333ZM17.3333 12.6667V8.66666H13.3333V4.66666H2.66667C1.2 4.66666 0 5.86666 0 7.33332V23.3333C0 24.8 1.2 26 2.66667 26H18.6667C20.1333 26 21.3333 24.8 21.3333 23.3333V12.6667H17.3333ZM2.66667 23.3333L6.66667 18L9.33333 22L13.3333 16.6667L18.6667 23.3333H2.66667Z" fill="#BF9F62"/>
</svg>
