<svg width="20" height="20" viewBox="0 0 20 20" fill="none" xmlns="http://www.w3.org/2000/svg">
<path d="M11.0256 20C10.1668 20 9.43209 19.3931 9.26282 18.5737C9.24954 18.5094 9.25502 18.5292 9.24679 18.4856C9.23857 18.442 9.23174 18.3813 9.21474 18.3013C9.18076 18.1412 9.12321 17.9095 9.04647 17.6282C8.89299 17.0657 8.64306 16.2946 8.26122 15.4567C7.5095 13.8072 6.23799 11.9199 4.19872 10.7692H0.897436C0.781542 10.7684 0.669344 10.7284 0.579129 10.6556C0.488913 10.5828 0.425999 10.4817 0.400641 10.3686C0.148114 9.2499 0 7.88903 0 6.41026C0 4.93149 0.148114 3.57062 0.400641 2.45192C0.425999 2.33883 0.488913 2.23767 0.579129 2.16492C0.669344 2.09216 0.781542 2.05211 0.897436 2.05128H3.84615C4.84805 2.05128 5.80305 1.58527 7.00321 1.0657C8.20336 0.546114 9.64083 0 11.5385 0H16.4103C17.5833 0 18.4615 1.07887 18.4615 2.30769C18.4615 2.49885 18.3886 2.66558 18.3494 2.84455C19.0364 3.23229 19.4872 3.99431 19.4872 4.87179C19.4872 5.17156 19.4203 5.4495 19.3269 5.71314C19.7222 6.17827 20 6.76192 20 7.4359C20 8.10436 19.7239 8.68009 19.3349 9.14263C19.5723 9.54624 19.7436 10.0003 19.7436 10.5128C19.7436 11.8882 18.7439 13.0769 17.4359 13.0769H12.8205V18.2051C12.8205 19.1903 12.0108 20 11.0256 20Z" fill="#C6A972"/>
</svg>
