<svg width="20" height="20" viewBox="0 0 20 20" fill="none" xmlns="http://www.w3.org/2000/svg">
<path fill-rule="evenodd" clip-rule="evenodd" d="M10.193 18.0936C10.1534 17.9071 10.0904 17.6549 10.0113 17.365C9.84686 16.7624 9.57995 15.9389 9.17124 15.042C8.3704 13.2847 6.98096 11.1908 4.69019 9.8983L4.46143 9.76923H1.29686C1.11053 8.80531 1.00006 7.65833 1.00006 6.41026C1.00006 5.16218 1.11053 4.01521 1.29686 3.05128H3.84621C4.97273 3.05128 6.04178 2.58068 7.04237 2.14021C7.16276 2.08721 7.28216 2.03465 7.40055 1.9834C8.55995 1.48146 9.8467 1 11.5385 1H16.4103C16.8966 1 17.4542 1.48368 17.4615 2.29148C17.4602 2.2979 17.4577 2.30912 17.4531 2.32627C17.4474 2.34799 17.4423 2.3661 17.4347 2.39276C17.4309 2.40603 17.4265 2.42142 17.4211 2.44043C17.4074 2.489 17.389 2.55587 17.3726 2.63027L17.2143 3.3522L17.8579 3.71544C18.2164 3.91776 18.4872 4.33826 18.4872 4.87179C18.4872 5.0208 18.4545 5.18128 18.3844 5.37922L18.1921 5.922L18.565 6.36076C18.8442 6.68929 19.0001 7.05139 19.0001 7.4359C19.0001 7.81334 18.8471 8.16906 18.5696 8.49904L18.1146 9.04019L18.473 9.64962C18.6517 9.95334 18.7437 10.2321 18.7437 10.5128C18.7437 11.4584 18.0767 12.0769 17.436 12.0769H11.8206V18.2051C11.8206 18.638 11.4586 19 11.0257 19C10.6407 19 10.3154 18.7258 10.2422 18.3714L9.26288 18.5737C9.43215 19.3931 10.1668 20 11.0257 20C12.0109 20 12.8206 19.1903 12.8206 18.2051V13.0769H17.436C18.744 13.0769 19.7437 11.8882 19.7437 10.5128C19.7437 10.0003 19.5724 9.54624 19.335 9.14263C19.7239 8.68009 20.0001 8.10436 20.0001 7.4359C20.0001 6.76192 19.7223 6.17827 19.327 5.71314C19.4204 5.4495 19.4872 5.17156 19.4872 4.87179C19.4872 3.99431 19.0365 3.23229 18.3494 2.84455C18.3619 2.78774 18.3777 2.73217 18.3936 2.67665C18.4276 2.55727 18.4616 2.43817 18.4616 2.30769C18.4616 1.07887 17.5833 0 16.4103 0H11.5385C9.64089 0 8.20343 0.546114 7.00327 1.0657C6.88402 1.11733 6.76719 1.16842 6.65249 1.21859C5.61286 1.67328 4.74856 2.05128 3.84621 2.05128H0.897497C0.781603 2.05211 0.669405 2.09216 0.57919 2.16492C0.488974 2.23767 0.42606 2.33883 0.400702 2.45192C0.148175 3.57062 6.10352e-05 4.93149 6.10352e-05 6.41026C6.10352e-05 7.88903 0.148175 9.2499 0.400702 10.3686C0.42606 10.4817 0.488974 10.5828 0.57919 10.6556C0.669405 10.7284 0.781603 10.7684 0.897497 10.7692H4.19878C6.23805 11.9199 7.50957 13.8072 8.26128 15.4567C8.64312 16.2946 8.89305 17.0657 9.04654 17.6282C9.12328 17.9095 9.18082 18.1412 9.2148 18.3013C9.22567 18.3524 9.23238 18.3957 9.23796 18.4316C9.2411 18.4519 9.24389 18.4698 9.24686 18.4856C9.25019 18.5033 9.25128 18.5105 9.25227 18.5172C9.25372 18.527 9.25499 18.5355 9.26288 18.5737L10.2422 18.3714C10.2411 18.366 10.2403 18.362 10.2397 18.3592L10.2383 18.3499C10.2357 18.3337 10.2328 18.3177 10.2295 18.3003C10.2298 18.3019 10.23 18.3028 10.23 18.3028C10.23 18.3028 10.2296 18.3003 10.2285 18.2937L10.2217 18.2503C10.2156 18.2114 10.2065 18.1574 10.193 18.0936Z" fill="#35251F"/>
</svg>
