<svg width="20" height="20" viewBox="0 0 20 20" fill="none" xmlns="http://www.w3.org/2000/svg">
<path d="M11.0256 0C10.1668 0 9.43209 0.606938 9.26282 1.42628C9.24954 1.49056 9.25502 1.4708 9.24679 1.51442C9.23857 1.55804 9.23174 1.61868 9.21474 1.69872C9.18076 1.85879 9.12321 2.09052 9.04647 2.37179C8.89299 2.93434 8.64306 3.70537 8.26122 4.54327C7.5095 6.1928 6.23799 8.08014 4.19872 9.23077H0.897436C0.781542 9.23159 0.669344 9.27165 0.579129 9.3444C0.488913 9.41716 0.425999 9.51832 0.400641 9.63141C0.148114 10.7501 0 12.111 0 13.5897C0 15.0685 0.148114 16.4294 0.400641 17.5481C0.425999 17.6612 0.488913 17.7623 0.579129 17.8351C0.669344 17.9078 0.781542 17.9479 0.897436 17.9487H3.84615C4.84805 17.9487 5.80305 18.4147 7.00321 18.9343C8.20336 19.4539 9.64083 20 11.5385 20H16.4103C17.5833 20 18.4615 18.9211 18.4615 17.6923C18.4615 17.5012 18.3886 17.3344 18.3494 17.1554C19.0364 16.7677 19.4872 16.0057 19.4872 15.1282C19.4872 14.8284 19.4203 14.5505 19.3269 14.2869C19.7222 13.8217 20 13.2381 20 12.5641C20 11.8956 19.7239 11.3199 19.3349 10.8574C19.5723 10.4538 19.7436 9.99967 19.7436 9.48718C19.7436 8.11178 18.7439 6.92308 17.4359 6.92308H12.8205V1.79487C12.8205 0.809667 12.0108 0 11.0256 0Z" fill="#C6A972"/>
</svg>
