<svg width="20" height="20" viewBox="0 0 20 20" fill="none" xmlns="http://www.w3.org/2000/svg">
<path fill-rule="evenodd" clip-rule="evenodd" d="M10.193 1.9064C10.1534 2.09292 10.0904 2.34514 10.0113 2.63501C9.84686 3.23762 9.57995 4.06111 9.17124 4.95795C8.3704 6.7153 6.98096 8.80916 4.69019 10.1017L4.46143 10.2308H1.29686C1.11053 11.1947 1.00006 12.3417 1.00006 13.5897C1.00006 14.8378 1.11053 15.9848 1.29686 16.9487H3.84621C4.97273 16.9487 6.04178 17.4193 7.04237 17.8598C7.16276 17.9128 7.28216 17.9653 7.40055 18.0166C8.55995 18.5185 9.8467 19 11.5385 19H16.4103C16.8966 19 17.4542 18.5163 17.4615 17.7085C17.4602 17.7021 17.4577 17.6909 17.4531 17.6737C17.4474 17.652 17.4423 17.6339 17.4347 17.6072C17.4309 17.594 17.4265 17.5786 17.4211 17.5596C17.4074 17.511 17.389 17.4441 17.3726 17.3697L17.2143 16.6478L17.8579 16.2846C18.2164 16.0822 18.4872 15.6617 18.4872 15.1282C18.4872 14.9792 18.4545 14.8187 18.3844 14.6208L18.1921 14.078L18.565 13.6392C18.8442 13.3107 19.0001 12.9486 19.0001 12.5641C19.0001 12.1867 18.8471 11.8309 18.5696 11.501L18.1146 10.9598L18.473 10.3504C18.6517 10.0467 18.7437 9.76792 18.7437 9.48718C18.7437 8.54159 18.0767 7.92308 17.436 7.92308H11.8206V1.79487C11.8206 1.36195 11.4586 1 11.0257 1C10.6407 1 10.3154 1.27419 10.2422 1.6286L9.26288 1.42628C9.43215 0.606938 10.1668 0 11.0257 0C12.0109 0 12.8206 0.809667 12.8206 1.79487V6.92308H17.436C18.744 6.92308 19.7437 8.11178 19.7437 9.48718C19.7437 9.99967 19.5724 10.4538 19.335 10.8574C19.7239 11.3199 20.0001 11.8956 20.0001 12.5641C20.0001 13.2381 19.7223 13.8217 19.327 14.2869C19.4204 14.5505 19.4872 14.8284 19.4872 15.1282C19.4872 16.0057 19.0365 16.7677 18.3494 17.1554C18.3619 17.2123 18.3777 17.2678 18.3936 17.3233C18.4276 17.4427 18.4616 17.5618 18.4616 17.6923C18.4616 18.9211 17.5833 20 16.4103 20H11.5385C9.64089 20 8.20343 19.4539 7.00327 18.9343C6.88402 18.8827 6.76719 18.8316 6.65249 18.7814C5.61286 18.3267 4.74856 17.9487 3.84621 17.9487H0.897497C0.781603 17.9479 0.669405 17.9078 0.57919 17.8351C0.488974 17.7623 0.42606 17.6612 0.400702 17.5481C0.148175 16.4294 6.10352e-05 15.0685 6.10352e-05 13.5897C6.10352e-05 12.111 0.148175 10.7501 0.400702 9.63141C0.42606 9.51832 0.488974 9.41716 0.57919 9.3444C0.669405 9.27165 0.781603 9.23159 0.897497 9.23077H4.19878C6.23805 8.08014 7.50957 6.1928 8.26128 4.54327C8.64312 3.70537 8.89305 2.93434 9.04654 2.37179C9.12328 2.09052 9.18082 1.85879 9.2148 1.69872C9.22567 1.64755 9.23238 1.60431 9.23796 1.56838C9.2411 1.54811 9.24389 1.53016 9.24686 1.51442C9.25019 1.49671 9.25128 1.48945 9.25227 1.48277C9.25372 1.473 9.25499 1.46447 9.26288 1.42628L10.2422 1.6286C10.2411 1.63398 10.2403 1.63797 10.2397 1.64079L10.2383 1.65014C10.2357 1.66632 10.2328 1.68235 10.2295 1.69973C10.2298 1.69813 10.23 1.69715 10.23 1.69715C10.23 1.69715 10.2296 1.6997 10.2285 1.70627L10.2217 1.74971C10.2156 1.78862 10.2065 1.84263 10.193 1.9064Z" fill="#35251F"/>
</svg>
