<svg width="138" height="51" viewBox="0 0 138 51" fill="none" xmlns="http://www.w3.org/2000/svg">
<path d="M134.379 20.0421H138V11.4735H131.653V13.4139C131.653 14.3424 130.902 15.1019 129.984 15.1019C129.065 15.1019 128.314 14.3424 128.314 13.4139V11.4735H121.967V20.0421H125.584C126.422 20.0465 127.107 20.7406 127.107 21.5892C127.107 22.4358 126.425 23.1283 125.589 23.1357H48.5612C47.5673 17.5854 43.9293 14.2455 39.0113 13.0683L40.759 11.3011C41.1875 10.8678 41.1875 10.1583 40.759 9.7243C40.3301 9.291 39.6285 9.291 39.1997 9.7243L37.5331 11.4096C36.1278 5.61979 31.8186 1.61731 24.4445 1.61731C17.0843 1.61731 12.7441 5.6402 11.3463 11.4538L9.63629 9.7243C9.20711 9.291 8.5055 9.291 8.07699 9.7243C7.64815 10.1583 7.64815 10.8678 8.07699 11.3011L9.7789 13.0221C4.00217 14.4182 0 18.7836 0 26.2815C0 33.7661 4.0237 38.161 9.82464 39.549L8.07699 41.3163C7.64815 41.7499 7.64815 42.4594 8.07699 42.8931C8.5055 43.3267 9.20711 43.3267 9.63629 42.8931L11.3025 41.2078C12.7078 46.9976 17.017 51.0001 24.3911 51.0001C31.7513 51.0001 36.0915 46.9772 37.4894 41.1636L39.1997 42.8931C39.6285 43.3267 40.3301 43.3267 40.759 42.8931C41.1875 42.4594 41.1875 41.7499 40.759 41.3163L39.0567 39.595C44.0208 38.3954 47.6725 35.0024 48.6022 29.3136H137.664V23.1357H134.374C133.538 23.1283 132.856 22.4358 132.856 21.5892C132.856 20.7406 133.541 20.0465 134.379 20.0421ZM37.8159 12.8129C37.8153 12.8129 37.8146 12.8129 37.8139 12.8126C37.8136 12.8119 37.8136 12.8112 37.8133 12.8105L37.8159 12.8129ZM11.0718 12.7602C11.0718 12.7609 11.0715 12.7615 11.0715 12.7622C11.0708 12.7622 11.0701 12.7626 11.0694 12.7626L11.0718 12.7602ZM11.0193 39.8045C11.02 39.8045 11.0203 39.8045 11.0214 39.8048C11.0214 39.8055 11.0214 39.8062 11.0217 39.8069L11.0193 39.8045ZM37.7635 39.8572C37.7638 39.8565 37.7638 39.8558 37.7642 39.8551C37.7648 39.8548 37.7655 39.8548 37.7662 39.8548L37.7635 39.8572ZM34.7535 36.7604C34.1545 41.9972 29.7571 46.064 24.4176 46.064C19.0785 46.064 14.6805 41.9972 14.0818 36.7604C8.90305 36.155 4.88171 31.708 4.88171 26.3087C4.88171 20.9097 8.90305 16.4627 14.0818 15.8569C14.6805 10.6202 19.0785 6.55375 24.4176 6.55375C29.7571 6.55375 34.1545 10.6202 34.7535 15.8569C39.9322 16.4627 43.9536 20.9097 43.9536 26.3087C43.9536 31.708 39.9322 36.155 34.7535 36.7604Z" fill="white"/>
<path d="M28.1834 40.0166V31.8885L22.5826 26.2246L28.1834 20.5607V12.4319L14.5449 26.2246L28.1834 40.0166Z" fill="white"/>
<path d="M54.2759 20.2848C57.2109 20.2848 58.7325 18.4717 58.7325 15.2987C58.7325 9.63242 52.8898 8.8675 52.8898 4.78815C52.8898 3.37123 53.4334 2.83282 54.3845 2.83282C55.3357 2.83282 55.8793 3.37123 55.8793 4.78815V5.60953H58.7052V4.98644C58.7052 1.81316 57.2109 0 54.3031 0C51.3954 0 49.9007 1.81316 49.9007 4.98644C49.9007 10.6524 55.7434 11.4173 55.7434 15.497C55.7434 16.9136 55.1454 17.4234 54.1942 17.4234C53.2433 17.4234 52.6453 16.9136 52.6453 15.497V14.0804H49.8193V15.2987C49.8193 18.4717 51.341 20.2848 54.2759 20.2848Z" fill="white"/>
<path d="M62.782 20.0584H65.7711V13.4856L69.5486 0.226562H66.6954L64.4126 9.26446L62.1299 0.226562H59.0049L62.782 13.4856V20.0584Z" fill="white"/>
<path d="M73.1348 5.69416L76.8578 20.0583H79.9286V0.226807H77.2654V12.0972L74.1946 0.226807H70.4443V20.0583H73.1348V5.69416Z" fill="white"/>
<path d="M89.9554 17.2252H84.7922V11.4174H88.8953V8.58423H84.7922V3.06007H89.9554V0.226562H81.8027V20.0584H89.9554V17.2252Z" fill="white"/>
<path d="M94.5203 11.9839H95.5529C96.9118 11.9839 97.5094 12.6638 97.5094 14.5055V17.6217C97.5094 19.2369 97.6181 19.5484 97.7812 20.0586H100.825C100.526 19.3219 100.499 18.6135 100.499 17.6502V14.5906C100.499 12.5223 100.01 11.0207 98.5151 10.3691C99.8467 9.71773 100.472 8.38618 100.472 6.34617V4.7881C100.472 1.72842 99.14 0.226807 96.042 0.226807H91.5312V20.0586H94.5203V11.9839ZM94.5203 3.05997H95.9606C97.0204 3.05997 97.4825 3.68306 97.4825 5.09964V7.05463C97.4825 8.64093 96.8028 9.1511 95.6888 9.1511H94.52V3.05997H94.5203Z" fill="white"/>
<path d="M106.396 20.2848C109.331 20.2848 110.853 18.4717 110.853 15.2987V9.00933H106.668V11.8425H108.027V15.497C108.027 16.9136 107.429 17.4234 106.477 17.4234C105.527 17.4234 104.929 16.9136 104.929 15.497V4.78815C104.929 3.37123 105.527 2.83282 106.477 2.83282C107.429 2.83282 108.027 3.37123 108.027 4.78815V6.91285H110.853V4.98644C110.853 1.81316 109.331 0 106.396 0C103.461 0 101.939 1.81316 101.939 4.98644V15.2987C101.939 18.4717 103.461 20.2848 106.396 20.2848Z" fill="white"/>
<path d="M114.901 20.0584H117.89V13.4856L121.668 0.226562H118.815L116.531 9.26446L114.249 0.226562H111.124L114.901 13.4856V20.0584Z" fill="white"/>
<path d="M50.3652 44.0365H52.1596V39.2205H54.4767V37.5539H52.1596V34.0381H55.1131V32.3716H50.3652V44.0365Z" fill="white"/>
<path d="M57.2024 32.3712L55.375 44.0362H57.0228L57.3329 41.92H59.5353L59.8454 44.0362H61.6562L59.8289 32.3712H57.2024ZM57.5612 40.3367L58.426 34.4378L59.2907 40.3367H57.5612Z" fill="white"/>
<path d="M66.3716 40.6537L65.0501 32.3716H62.5537V44.0365H64.1201V35.7877L65.4581 44.0365H67.1546L68.3947 35.671V44.0365H70.0915V32.3716H67.5952L66.3716 40.6537Z" fill="white"/>
<path d="M73.2729 32.3716H71.4785V44.0365H73.2729V32.3716Z" fill="white"/>
<path d="M76.4549 32.3716H74.6602V44.0365H79.4077V42.3699H76.4549V32.3716Z" fill="white"/>
<path d="M81.9206 37.6872L80.55 32.3716H78.6738L80.9415 40.1704V44.0365H82.7362V40.1704L85.0042 32.3716H83.2912L81.9206 37.6872Z" fill="white"/>
<path d="M90.9917 32.2379C89.2296 32.2379 88.2666 33.3045 88.2666 35.1707V41.2367C88.2666 43.1032 89.2292 44.1695 90.9917 44.1695C92.7535 44.1695 93.7164 43.1032 93.7164 41.2367V35.1707C93.7161 33.3049 92.7535 32.2379 90.9917 32.2379ZM91.9213 41.3537C91.9213 42.187 91.5625 42.5036 90.9913 42.5036C90.4202 42.5036 90.061 42.187 90.061 41.3537V35.0544C90.061 34.2215 90.4199 33.9048 90.9913 33.9048C91.5621 33.9048 91.9213 34.2215 91.9213 35.0544V41.3537Z" fill="white"/>
<path d="M94.957 44.0365H96.7518V39.2205H99.0685V37.5539H96.7518V34.0381H99.7045V32.3716H94.957V44.0365Z" fill="white"/>
<path d="M100.651 44.0365H102.446V39.2205H104.763V37.5539H102.446V34.0381H105.399V32.3716H100.651V44.0365Z" fill="white"/>
<path d="M108.14 32.3716H106.346V44.0365H108.14V32.3716Z" fill="white"/>
<path d="M112.056 32.2382C110.293 32.2382 109.38 33.3048 109.38 35.171V41.2369C109.38 43.1032 110.293 44.1698 112.056 44.1698C113.817 44.1698 114.731 43.1032 114.731 41.2369V39.687H113.034V41.3536C113.034 42.1869 112.675 42.4869 112.104 42.4869C111.533 42.4869 111.174 42.1869 111.174 41.3536V35.0543C111.174 34.2214 111.533 33.9044 112.104 33.9044C112.675 33.9044 113.034 34.2214 113.034 35.0543V36.3042H114.731V35.171C114.731 33.3048 113.817 32.2382 112.056 32.2382Z" fill="white"/>
<path d="M115.906 44.0365H120.801V42.3699H117.701V38.9538H120.164V37.2873H117.701V34.0381H120.801V32.3716H115.906V44.0365Z" fill="white"/>
</svg>
