<svg width="87" height="32" viewBox="0 0 87 32" fill="none" xmlns="http://www.w3.org/2000/svg">
<path d="M84.3162 12.5754H86.5882V7.19906H82.6057V8.41654C82.6057 8.99914 82.1345 9.47567 81.5583 9.47567C80.9822 9.47567 80.5109 8.99914 80.5109 8.41654V7.19906H76.5286V12.5754H78.7979C79.3238 12.5782 79.7535 13.0137 79.7535 13.5462C79.7535 14.0773 79.3257 14.5118 78.8011 14.5165H30.4697C29.8461 11.034 27.5635 8.93832 24.4777 8.19972L25.5743 7.09086C25.8431 6.81898 25.8431 6.37382 25.5743 6.10151C25.3052 5.82963 24.8649 5.82963 24.5959 6.10151L23.5502 7.15894C22.6684 3.52613 19.9646 1.01477 15.3378 1.01477C10.7196 1.01477 7.99631 3.53893 7.11923 7.18668L6.0463 6.10151C5.77701 5.82963 5.33678 5.82963 5.06792 6.10151C4.79884 6.37382 4.79884 6.81898 5.06792 7.09086L6.13578 8.1707C2.51117 9.04673 0 11.7858 0 16.4903C0 21.1865 2.52467 23.9442 6.16448 24.8151L5.06792 25.9239C4.79884 26.196 4.79884 26.6412 5.06792 26.9133C5.33678 27.1854 5.77701 27.1854 6.0463 26.9133L7.09179 25.8559C7.97351 29.4887 10.6774 32 15.3042 32C19.9224 32 22.6456 29.4759 23.5227 25.8281L24.5959 26.9133C24.8649 27.1854 25.3052 27.1854 25.5743 26.9133C25.8431 26.6412 25.8431 26.196 25.5743 25.9239L24.5062 24.8439C27.6209 24.0912 29.9122 21.9623 30.4955 18.3928H86.3772V14.5165H84.313C83.7886 14.5118 83.3608 14.0773 83.3608 13.5462C83.3608 13.0137 83.7905 12.5782 84.3162 12.5754ZM23.7277 8.03945C23.7272 8.03945 23.7268 8.03945 23.7264 8.03924C23.7262 8.03881 23.7262 8.03838 23.726 8.03796L23.7277 8.03945ZM6.94701 8.00637C6.94701 8.0068 6.94681 8.00723 6.94681 8.00765C6.94638 8.00765 6.94596 8.00787 6.94554 8.00787L6.94701 8.00637ZM6.91409 24.9753C6.91452 24.9753 6.91473 24.9753 6.91536 24.9756C6.91536 24.976 6.91536 24.9764 6.91557 24.9768L6.91409 24.9753ZM23.6947 25.0084C23.6949 25.008 23.6949 25.0076 23.6952 25.0071C23.6956 25.0069 23.696 25.0069 23.6964 25.0069L23.6947 25.0084ZM21.8061 23.0654C21.4303 26.3512 18.6711 28.9029 15.3209 28.9029C11.9708 28.9029 9.21126 26.3512 8.83561 23.0654C5.58623 22.6855 3.06304 19.8952 3.06304 16.5074C3.06304 13.1198 5.58623 10.3295 8.83561 9.94944C9.21126 6.66363 11.9708 4.11214 15.3209 4.11214C18.6711 4.11214 21.4303 6.66363 21.8061 9.94944C25.0555 10.3295 27.5787 13.1198 27.5787 16.5074C27.5787 19.8952 25.0555 22.6855 21.8061 23.0654Z" fill="#BF9F62"/>
<path d="M17.6839 25.1085V20.0085L14.1697 16.4547L17.6839 12.9008V7.80042L9.12646 16.4547L17.6839 25.1085Z" fill="#BF9F62"/>
<path d="M34.0558 12.7277C35.8973 12.7277 36.8521 11.5901 36.8521 9.59921C36.8521 6.04387 33.1861 5.56392 33.1861 3.00433C33.1861 2.11528 33.5271 1.77746 34.124 1.77746C34.7208 1.77746 35.0618 2.11528 35.0618 3.00433V3.51971H36.835V3.12875C36.835 1.13767 35.8973 0 34.0729 0C32.2485 0 31.3106 1.13767 31.3106 3.12875C31.3106 6.68387 34.9766 7.16383 34.9766 9.72363C34.9766 10.6125 34.6013 10.9324 34.0045 10.9324C33.4079 10.9324 33.0327 10.6125 33.0327 9.72363V8.83479H31.2595V9.59921C31.2595 11.5901 32.2143 12.7277 34.0558 12.7277Z" fill="#BF9F62"/>
<path d="M39.3926 12.5856H41.2681V8.46151L43.6383 0.14209H41.848L40.4157 5.81293L38.9834 0.14209H37.0226L39.3926 8.46151V12.5856Z" fill="#BF9F62"/>
<path d="M45.8888 3.57283L48.2248 12.5856H50.1516V0.142334H48.4806V7.59041L46.5538 0.142334H44.2007V12.5856H45.8888V3.57283Z" fill="#BF9F62"/>
<path d="M56.4428 10.8079H53.2031V7.16378H55.7776V5.38611H53.2031V1.91997H56.4428V0.14209H51.3274V12.5856H56.4428V10.8079Z" fill="#BF9F62"/>
<path d="M59.3072 7.51935H59.955C60.8076 7.51935 61.1827 7.94595 61.1827 9.10154V11.0568C61.1827 12.0702 61.2508 12.2657 61.3532 12.5858H63.2631C63.0755 12.1236 63.0584 11.6791 63.0584 11.0747V9.15489C63.0584 7.85717 62.7515 6.91498 61.8137 6.5061C62.6492 6.09742 63.0413 5.26194 63.0413 3.98193V3.00432C63.0413 1.08452 62.2058 0.142334 60.2619 0.142334H57.4316V12.5858H59.3072V7.51935ZM59.3072 1.92H60.2108C60.8758 1.92 61.1658 2.31096 61.1658 3.1998V4.42646C61.1658 5.42178 60.7393 5.74189 60.0403 5.74189H59.3069V1.92H59.3072Z" fill="#BF9F62"/>
<path d="M66.7583 12.7277C68.5999 12.7277 69.5546 11.5901 69.5546 9.59921V5.65291H66.9288V7.43058H67.7814V9.72363C67.7814 10.6125 67.4062 10.9324 66.8094 10.9324C66.213 10.9324 65.8378 10.6125 65.8378 9.72363V3.00433C65.8378 2.11528 66.213 1.77746 66.8094 1.77746C67.4062 1.77746 67.7814 2.11528 67.7814 3.00433V4.33748H69.5546V3.12875C69.5546 1.13767 68.5999 0 66.7583 0C64.9166 0 63.962 1.13767 63.962 3.12875V9.59921C63.962 11.5901 64.9166 12.7277 66.7583 12.7277Z" fill="#BF9F62"/>
<path d="M72.0948 12.5856H73.9703V8.46151L76.3405 0.14209H74.5503L73.1177 5.81293L71.6856 0.14209H69.7249L72.0948 8.46151V12.5856Z" fill="#BF9F62"/>
<path d="M31.6019 27.6307H32.7278V24.6089H34.1817V23.5632H32.7278V21.3572H34.581V20.3115H31.6019V27.6307Z" fill="#BF9F62"/>
<path d="M35.8916 20.3113L34.745 27.6305H35.7789L35.9735 26.3026H37.3554L37.5499 27.6305H38.6862L37.5396 20.3113H35.8916ZM36.1168 25.3092L36.6593 21.6079L37.2019 25.3092H36.1168Z" fill="#BF9F62"/>
<path d="M41.6449 25.5082L40.8157 20.3115H39.2494V27.6307H40.2322V22.455L41.0717 27.6307H42.1362L42.9143 22.3818V27.6307H43.979V20.3115H42.4127L41.6449 25.5082Z" fill="#BF9F62"/>
<path d="M45.975 20.3115H44.8491V27.6307H45.975V20.3115Z" fill="#BF9F62"/>
<path d="M47.9714 20.3115H46.8453V27.6307H49.8242V26.585H47.9714V20.3115Z" fill="#BF9F62"/>
<path d="M51.4009 23.6468L50.541 20.3115H49.3638L50.7866 25.2049V27.6307H51.9127V25.2049L53.3358 20.3115H52.2609L51.4009 23.6468Z" fill="#BF9F62"/>
<path d="M57.093 20.2277C55.9874 20.2277 55.3832 20.8969 55.3832 22.0679V25.874C55.3832 27.0451 55.9872 27.7142 57.093 27.7142C58.1985 27.7142 58.8027 27.0451 58.8027 25.874V22.0679C58.8025 20.8971 58.1985 20.2277 57.093 20.2277ZM57.6763 25.9474C57.6763 26.4702 57.4512 26.6689 57.0928 26.6689C56.7345 26.6689 56.5091 26.4702 56.5091 25.9474V21.9949C56.5091 21.4722 56.7343 21.2736 57.0928 21.2736C57.451 21.2736 57.6763 21.4722 57.6763 21.9949V25.9474Z" fill="#BF9F62"/>
<path d="M59.5808 27.6307H60.7069V24.6089H62.1606V23.5632H60.7069V21.3572H62.5596V20.3115H59.5808V27.6307Z" fill="#BF9F62"/>
<path d="M63.1537 27.6307H64.2798V24.6089H65.7332V23.5632H64.2798V21.3572H66.1325V20.3115H63.1537V27.6307Z" fill="#BF9F62"/>
<path d="M67.8525 20.3115H66.7264V27.6307H67.8525V20.3115Z" fill="#BF9F62"/>
<path d="M70.3094 20.2279C69.2038 20.2279 68.6306 20.8971 68.6306 22.0681V25.8742C68.6306 27.0452 69.2038 27.7144 70.3094 27.7144C71.4149 27.7144 71.9885 27.0452 71.9885 25.8742V24.9017H70.9236V25.9474C70.9236 26.4702 70.6984 26.6585 70.34 26.6585C69.9817 26.6585 69.7565 26.4702 69.7565 25.9474V21.9949C69.7565 21.4723 69.9815 21.2734 70.34 21.2734C70.6982 21.2734 70.9236 21.4723 70.9236 21.9949V22.7792H71.9885V22.0681C71.9885 20.8971 71.4149 20.2279 70.3094 20.2279Z" fill="#BF9F62"/>
<path d="M72.7255 27.6307H75.7965V26.585H73.8514V24.4416H75.3972V23.3959H73.8514V21.3572H75.7965V20.3115H72.7255V27.6307Z" fill="#BF9F62"/>
</svg>
