<svg width="25" height="25" viewBox="0 0 25 25" fill="none" xmlns="http://www.w3.org/2000/svg">
<path d="M10.6673 18.6673C11.7179 18.6673 12.7582 18.4604 13.7288 18.0584C14.6994 17.6563 15.5813 17.0671 16.3242 16.3242C17.0671 15.5813 17.6563 14.6994 18.0584 13.7288C18.4604 12.7582 18.6673 11.7179 18.6673 10.6673C18.6673 9.61676 18.4604 8.57648 18.0584 7.60587C17.6563 6.63527 17.0671 5.75335 16.3242 5.01048C15.5813 4.26761 14.6994 3.67834 13.7288 3.2763C12.7582 2.87426 11.7179 2.66734 10.6673 2.66734C8.54561 2.66734 6.51077 3.51019 5.01048 5.01048C3.51019 6.51077 2.66734 8.54561 2.66734 10.6673C2.66734 12.7891 3.51019 14.8239 5.01048 16.3242C6.51077 17.8245 8.54561 18.6673 10.6673 18.6673ZM19.094 17.2087L23.8673 21.982C23.9946 22.1051 24.0961 22.2523 24.1658 22.415C24.2356 22.5777 24.2722 22.7527 24.2737 22.9298C24.2751 23.1068 24.2412 23.2823 24.174 23.4462C24.1069 23.61 24.0078 23.7588 23.8825 23.8839C23.7572 24.009 23.6083 24.1079 23.4444 24.1748C23.2805 24.2417 23.1049 24.2753 22.9278 24.2737C22.7508 24.272 22.5759 24.2351 22.4133 24.1651C22.2506 24.0951 22.1036 23.9934 21.9807 23.866L17.2073 19.0927C15.064 20.7565 12.3671 21.5409 9.66568 21.2863C6.96429 21.0316 4.46148 19.7571 2.66674 17.7221C0.872 15.6871 -0.0797494 13.0446 0.00523869 10.3326C0.0902268 7.62054 1.20556 5.04284 3.1242 3.1242C5.04284 1.20556 7.62054 0.0902268 10.3326 0.00523869C13.0446 -0.0797494 15.6871 0.872 17.7221 2.66674C19.7571 4.46148 21.0316 6.96429 21.2863 9.66568C21.5409 12.3671 20.7565 15.064 19.0927 17.2073L19.094 17.2087Z" fill="white"/>
</svg>
