<svg width="30" height="24" fill="none" xmlns="http://www.w3.org/2000/svg"><path fill-rule="evenodd" clip-rule="evenodd" d="M8.25 3.794c.094-.131.199-.292.333-.509l.281-.463.112-.184C10.08.83 10.885 0 12.333 0H19v2.667h-6.666c-.116 0-.48.375-1.083 1.362l-.097.16-.302.496c-.164.266-.3.475-.438.666-.597.83-1.195 1.316-2.08 1.316h-4C3.596 6.667 3 7.264 3 8v12c0 .736.597 1.333 1.333 1.333h21.334c.736 0 1.333-.597 1.333-1.333v-8h2.667v8a4 4 0 01-4 4H4.333a4 4 0 01-4-4V8a4 4 0 014-4h3.755c.045-.05.1-.12.162-.206zm13.417 2.873V4h2.666V1.333H27V4h2.667v2.667H27v2.666h-2.666V6.667h-2.667zM15 20a6.667 6.667 0 110-13.333A6.667 6.667 0 0115 20zm0-2.667a4 4 0 100-8 4 4 0 000 8z" fill="#C6A972"/></svg>