<svg width="20" height="20" fill="none" xmlns="http://www.w3.org/2000/svg"><path d="M11.026 20a1.801 1.801 0 01-1.763-1.426c-.013-.065-.008-.045-.016-.088-.008-.044-.015-.105-.032-.185a14.525 14.525 0 00-.954-2.845C7.51 13.808 6.238 11.92 4.2 10.77H.897a.512.512 0 01-.496-.4C.148 9.249 0 7.889 0 6.41s.148-2.84.4-3.958a.513.513 0 01.497-.4h2.95c1.001 0 1.956-.467 3.156-.986C8.203.546 9.641 0 11.54 0h4.871c1.173 0 2.052 1.079 2.052 2.308 0 .19-.073.358-.113.537.687.387 1.138 1.15 1.138 2.027 0 .3-.067.577-.16.841.395.465.673 1.049.673 1.723 0 .668-.276 1.244-.665 1.707.237.403.409.857.409 1.37 0 1.375-1 2.564-2.308 2.564H12.82v5.128c0 .985-.81 1.795-1.794 1.795z" fill="#C6A972"/></svg>