<svg width="20" height="20" fill="none" xmlns="http://www.w3.org/2000/svg"><path d="M11.026 0a1.8 1.8 0 00-1.763 1.426c-.013.065-.008.045-.016.088-.008.044-.015.105-.032.185a14.523 14.523 0 01-.954 2.845C7.51 6.192 6.238 8.08 4.2 9.23H.897a.513.513 0 00-.496.4C.148 10.751 0 12.111 0 13.59s.148 2.84.4 3.958a.513.513 0 00.497.4h2.95c1.001 0 1.956.467 3.156.986 1.2.52 2.638 1.066 4.536 1.066h4.871c1.173 0 2.052-1.079 2.052-2.308 0-.19-.073-.358-.113-.537.687-.387 1.138-1.15 1.138-2.027a2.5 2.5 0 00-.16-.841c.395-.465.673-1.049.673-1.723 0-.668-.276-1.244-.665-1.707.237-.403.409-.857.409-1.37 0-1.375-1-2.564-2.308-2.564H12.82V1.795C12.82.81 12.01 0 11.026 0z" fill="#C6A972"/></svg>