<svg width="87" height="32" fill="none" xmlns="http://www.w3.org/2000/svg"><path d="M84.316 12.575h2.272V7.2h-3.982v1.218c0 .582-.471 1.059-1.048 1.059a1.056 1.056 0 01-1.047-1.06V7.2h-3.982v5.376h2.269a.969.969 0 01.956.971.969.969 0 01-.953.97H30.47c-.624-3.482-2.906-5.578-5.992-6.316l1.096-1.11a.708.708 0 000-.988.689.689 0 00-.978 0L23.55 7.159c-.882-3.633-3.585-6.144-8.212-6.144-4.618 0-7.342 2.524-8.219 6.172L6.046 6.102a.689.689 0 00-.978 0 .707.707 0 000 .989l1.068 1.08C2.51 9.047 0 11.786 0 16.49c0 4.695 2.525 7.453 6.164 8.324l-1.096 1.109a.707.707 0 000 .99.69.69 0 00.978 0l1.046-1.058C7.974 29.489 10.677 32 15.304 32c4.618 0 7.342-2.524 8.219-6.172l1.073 1.085c.269.272.71.272.978 0a.708.708 0 000-.99l-1.068-1.08c3.115-.752 5.406-2.88 5.99-6.45h55.881v-3.877h-2.064a.968.968 0 01-.952-.97c0-.532.43-.968.955-.97zM23.728 8.04h-.002v-.001l.002.001zM6.947 8.006v.002h-.001l.001-.002zm-.033 16.97h.001zm16.78.032h.001l.001-.001-.001.001zm-1.888-1.943c-.376 3.286-3.135 5.838-6.485 5.838-3.35 0-6.11-2.552-6.485-5.838-3.25-.38-5.773-3.17-5.773-6.558 0-3.387 2.523-6.178 5.773-6.558.375-3.285 3.135-5.837 6.485-5.837 3.35 0 6.11 2.552 6.485 5.837 3.25.38 5.773 3.17 5.773 6.558s-2.524 6.178-5.773 6.558z" fill="#BF9F62"/><path d="M17.684 25.108v-5.1l-3.514-3.553 3.514-3.554V7.8l-8.558 8.654 8.558 8.654zm16.372-12.38c1.841 0 2.796-1.138 2.796-3.129 0-3.555-3.666-4.035-3.666-6.595 0-.889.341-1.227.938-1.227s.938.338.938 1.227v.516h1.773v-.391c0-1.991-.938-3.129-2.762-3.129-1.825 0-2.762 1.138-2.762 3.129 0 3.555 3.666 4.035 3.666 6.595 0 .889-.376 1.208-.972 1.208-.597 0-.972-.32-.972-1.208v-.89h-1.774V9.6c0 1.991.955 3.129 2.797 3.129zm5.337-.142h1.875V8.462l2.37-8.32h-1.79l-1.432 5.67-1.433-5.67h-1.96l2.37 8.32v4.124zm6.496-9.013l2.336 9.013h1.927V.142H48.48V7.59L46.554.142H44.2v12.444h1.688V3.573zm10.554 7.235h-3.24V7.164h2.575V5.386h-2.575V1.92h3.24V.142h-5.116v12.444h5.116v-1.778zm2.864-3.288h.648c.853 0 1.228.426 1.228 1.582v1.955c0 1.013.068 1.209.17 1.529h1.91c-.188-.462-.205-.907-.205-1.511v-1.92c0-1.298-.306-2.24-1.244-2.649.835-.409 1.227-1.244 1.227-2.524v-.978c0-1.92-.835-2.862-2.78-2.862h-2.83v12.444h1.876V7.519zm0-5.6h.904c.665 0 .955.391.955 1.28v1.226c0 .996-.427 1.316-1.126 1.316h-.733V1.92zm7.451 10.808c1.842 0 2.797-1.138 2.797-3.129V5.653h-2.626V7.43h.852v2.293c0 .889-.375 1.208-.972 1.208-.596 0-.971-.32-.971-1.208v-6.72c0-.889.375-1.227.971-1.227.597 0 .972.338.972 1.227v1.333h1.774V3.13c0-1.992-.955-3.13-2.797-3.13-1.841 0-2.796 1.138-2.796 3.129v6.47c0 1.991.955 3.129 2.796 3.129zm5.337-.142h1.875V8.462l2.37-8.32h-1.79l-1.432 5.67-1.432-5.67h-1.961l2.37 8.32v4.124zM31.602 27.63h1.126v-3.02h1.454v-1.046h-1.454v-2.206h1.853v-1.046h-2.98v7.32zm4.29-7.319l-1.147 7.32h1.034l.194-1.328h1.382l.195 1.328h1.136l-1.146-7.32h-1.648zm.225 4.998l.542-3.701.543 3.701h-1.085zm5.528.199l-.83-5.197H39.25v7.32h.983v-5.176l.84 5.176h1.064l.778-5.25v5.25h1.065v-7.32h-1.566l-.768 5.197zm4.33-5.197h-1.126v7.32h1.126v-7.32zm1.996 0h-1.126v7.32h2.98v-1.046H47.97v-6.274zm3.429 3.336l-.859-3.335h-1.177l1.423 4.893v2.426h1.126v-2.426l1.423-4.893H52.26l-.86 3.335zm5.693-3.419c-1.106 0-1.71.669-1.71 1.84v3.806c0 1.171.604 1.84 1.71 1.84 1.105 0 1.71-.669 1.71-1.84v-3.806c0-1.17-.604-1.84-1.71-1.84zm.583 5.72c0 .522-.225.72-.583.72-.359 0-.584-.198-.584-.72v-3.953c0-.523.225-.721.584-.721.358 0 .583.198.583.72v3.953zm1.904 1.682h1.127v-3.02h1.454v-1.046h-1.454v-2.206h1.853v-1.046h-2.98v7.32zm3.574 0h1.126v-3.02h1.453v-1.046H64.28v-2.206h1.852v-1.046h-2.978v7.32zm4.699-7.319h-1.127v7.32h1.127v-7.32zm2.457-.083c-1.106 0-1.68.67-1.68 1.84v3.806c0 1.171.574 1.84 1.68 1.84 1.105 0 1.678-.669 1.678-1.84v-.972h-1.064v1.045c0 .523-.226.712-.584.712s-.584-.189-.584-.712v-3.952c0-.523.225-.722.584-.722.358 0 .584.2.584.722v.784h1.064v-.71c0-1.172-.573-1.841-1.679-1.841zm2.415 7.402h3.072v-1.045H73.85v-2.143h1.546v-1.046H73.85v-2.039h1.945v-1.046h-3.07v7.32z" fill="#BF9F62"/></svg>