<svg width="138" height="51" fill="none" xmlns="http://www.w3.org/2000/svg"><path d="M134.379 20.042H138v-8.569h-6.347v1.94c0 .93-.751 1.689-1.669 1.689-.919 0-1.67-.76-1.67-1.688v-1.94h-6.347v8.568h3.617a1.544 1.544 0 011.523 1.547c0 .847-.682 1.54-1.518 1.547H48.561c-.994-5.55-4.632-8.89-9.55-10.068l1.748-1.767a1.128 1.128 0 000-1.577 1.098 1.098 0 00-1.56 0l-1.666 1.686c-1.405-5.79-5.714-9.793-13.088-9.793-7.36 0-11.7 4.023-13.099 9.837l-1.71-1.73a1.098 1.098 0 00-1.559 0 1.127 1.127 0 000 1.577l1.702 1.721C4.002 14.418 0 18.784 0 26.282c0 7.484 4.024 11.879 9.825 13.267l-1.748 1.767a1.127 1.127 0 000 1.577c.428.434 1.13.434 1.56 0l1.665-1.685C12.709 46.998 17.017 51 24.392 51c7.36 0 11.7-4.023 13.097-9.836l1.71 1.73a1.1 1.1 0 001.56 0 1.128 1.128 0 000-1.578l-1.702-1.721c4.964-1.2 8.615-4.593 9.545-10.281h89.062v-6.178h-3.29a1.544 1.544 0 01-1.518-1.547c0-.848.685-1.542 1.523-1.547zm-96.563-7.23h-.002v-.002l.002.003zm-26.744-.052v.002h-.003l.003-.002zm-.053 27.044h.002v.003l-.002-.003zm26.744.053l.001-.002h.002l-.002.002zm-3.01-3.097c-.599 5.237-4.996 9.304-10.335 9.304-5.34 0-9.737-4.067-10.336-9.304-5.179-.605-9.2-5.052-9.2-10.451 0-5.4 4.021-9.846 9.2-10.452.598-5.237 4.996-9.303 10.336-9.303s9.736 4.066 10.336 9.303c5.178.606 9.2 5.053 9.2 10.452s-4.022 9.846-9.2 10.451z" fill="#fff"/><path d="M28.183 40.017v-8.129l-5.6-5.663 5.6-5.664v-8.13L14.545 26.226l13.638 13.792zm26.093-19.732c2.935 0 4.456-1.813 4.456-4.986 0-5.667-5.842-6.431-5.842-10.51 0-1.418.543-1.956 1.495-1.956.95 0 1.494.538 1.494 1.955v.822h2.826v-.624C58.705 1.813 57.211 0 54.303 0c-2.908 0-4.402 1.813-4.402 4.986 0 5.666 5.842 6.431 5.842 10.511 0 1.417-.598 1.926-1.549 1.926-.95 0-1.549-.51-1.549-1.926V14.08H49.82v1.22c0 3.173 1.522 4.986 4.457 4.986zm8.506-.227h2.99v-6.572L69.548.226h-2.854l-2.282 9.038L62.13.227h-3.125l3.777 13.259v6.572zM73.135 5.694l3.723 14.364h3.07V.227h-2.663v11.87L74.195.227h-3.75v19.831h2.69V5.694zm16.82 11.531h-5.163v-5.808h4.103V8.584h-4.103V3.06h5.163V.227h-8.152v19.831h8.152v-2.833zm4.565-5.241h1.033c1.359 0 1.956.68 1.956 2.521v3.117c0 1.615.11 1.926.272 2.437h3.044c-.299-.737-.326-1.446-.326-2.409v-3.06c0-2.068-.489-3.57-1.984-4.22 1.332-.652 1.957-1.984 1.957-4.024V4.788c0-3.06-1.332-4.561-4.43-4.561h-4.51v19.832h2.988v-8.075zm0-8.924h1.44c1.06 0 1.523.623 1.523 2.04v1.955c0 1.586-.68 2.096-1.794 2.096H94.52V3.06zm11.876 17.225c2.935 0 4.457-1.813 4.457-4.986v-6.29h-4.185v2.833h1.359v3.655c0 1.417-.598 1.926-1.55 1.926-.95 0-1.548-.51-1.548-1.926V4.788c0-1.417.598-1.955 1.548-1.955.952 0 1.55.538 1.55 1.955v2.125h2.826V4.986c0-3.173-1.522-4.986-4.457-4.986-2.935 0-4.457 1.813-4.457 4.986V15.3c0 3.173 1.522 4.986 4.457 4.986zm8.505-.227h2.989v-6.572l3.778-13.26h-2.853l-2.284 9.038-2.282-9.037h-3.125l3.777 13.259v6.572zM50.365 44.036h1.795V39.22h2.317v-1.666H52.16v-3.516h2.953v-1.666h-4.748v11.664zm6.837-11.665l-1.827 11.665h1.648l.31-2.116h2.202l.31 2.116h1.811L59.83 32.371h-2.627zm.36 7.966l.864-5.9.865 5.9h-1.73zm8.81.317l-1.322-8.282h-2.496v11.664h1.566v-8.248l1.338 8.248h1.697l1.24-8.365v8.365h1.697V32.372h-2.497l-1.223 8.282zm6.901-8.282h-1.794v11.664h1.794V32.372zm3.182 0H74.66v11.664h4.748V42.37h-2.953v-9.998zm5.465 5.315l-1.37-5.315h-1.876l2.267 7.798v3.866h1.795V40.17l2.268-7.798h-1.713l-1.37 5.315zm9.072-5.449c-1.762 0-2.725 1.066-2.725 2.933v6.066c0 1.866.962 2.932 2.725 2.932 1.761 0 2.724-1.066 2.724-2.932V35.17c0-1.866-.962-2.933-2.724-2.933zm.93 9.116c0 .833-.36 1.15-.93 1.15-.572 0-.931-.317-.931-1.15v-6.3c0-.833.359-1.15.93-1.15.571 0 .93.317.93 1.15v6.3zm3.035 2.682h1.795V39.22h2.317v-1.666h-2.317v-3.516h2.953v-1.666h-4.748v11.664zm5.694 0h1.795V39.22h2.317v-1.666h-2.317v-3.516h2.953v-1.666h-4.748v11.664zm7.489-11.664h-1.794v11.664h1.794V32.372zm3.916-.134c-1.763 0-2.676 1.067-2.676 2.933v6.066c0 1.866.913 2.933 2.676 2.933 1.761 0 2.675-1.067 2.675-2.933v-1.55h-1.697v1.667c0 .833-.359 1.133-.93 1.133-.571 0-.93-.3-.93-1.133v-6.3c0-.833.359-1.15.93-1.15.571 0 .93.317.93 1.15v1.25h1.697v-1.133c0-1.866-.914-2.933-2.675-2.933zm3.85 11.798h4.895V42.37h-3.1v-3.416h2.463v-1.667h-2.463v-3.249h3.1v-1.666h-4.895v11.664z" fill="#fff"/></svg>